<svg xmlns="http://www.w3.org/2000/svg" xmlns:xlink="http://www.w3.org/1999/xlink" width="100.636" height="100.636" viewBox="0 0 100.636 100.636"><defs><style>.a{fill:#0aa756;}.b{fill:url(#a);}.c{fill:#fff;stroke:rgba(0,0,0,0);}.d{filter:url(#b);}</style><linearGradient id="a" x1="0.5" y1="0.043" x2="0.5" y2="0.933" gradientUnits="objectBoundingBox"><stop offset="0" stop-color="#58f17b"/><stop offset="1" stop-color="#16cd6f"/></linearGradient><filter id="b" x="0" y="0" width="100.636" height="100.636" filterUnits="userSpaceOnUse"><feOffset dy="3" input="SourceAlpha"/><feGaussianBlur stdDeviation="4.5" result="c"/><feFlood flood-color="#2bbd85" flood-opacity="0.502"/><feComposite operator="in" in2="c"/><feComposite in="SourceGraphic"/></filter></defs><g transform="translate(-998.194 -274.5)"><rect class="a" width="4" height="3" transform="translate(1012 285)"/><rect class="a" width="3" height="4" transform="translate(1082 355)"/><g class="d" transform="matrix(1, 0, 0, 1, 998.19, 274.5)"><path class="b" d="M73.636,34.827V73.636L0,0H38.809Z" transform="translate(13.5 10.5)"/></g><path class="c" d="M31.66,36.98A3.546,3.546,0,0,1,29.075,34.4a3.428,3.428,0,0,1,.15-1.927,6.033,6.033,0,0,1,3.244-3.244A3.7,3.7,0,0,1,33.706,29a3.142,3.142,0,0,1,.69.076A3.545,3.545,0,0,1,36.98,31.66a3.417,3.417,0,0,1-.15,1.927,6.024,6.024,0,0,1-3.243,3.243,3.655,3.655,0,0,1-1.235.227A3.167,3.167,0,0,1,31.66,36.98Zm1.955-6.2a3.71,3.71,0,0,0-1.722,1.113,3.724,3.724,0,0,0-1.113,1.722,1.345,1.345,0,0,0,.372,1.288,1.328,1.328,0,0,0,.964.414,1.678,1.678,0,0,0,.332-.035A3.7,3.7,0,0,0,34.17,34.17a3.682,3.682,0,0,0,1.113-1.721,1.352,1.352,0,0,0-.379-1.3,1.308,1.308,0,0,0-.954-.406A1.721,1.721,0,0,0,33.615,30.78Zm-7.679.751a4.961,4.961,0,0,1-1.514-1.071,4.9,4.9,0,0,1-1.067-1.51,2.747,2.747,0,0,1-.233-1.484,2.159,2.159,0,0,1,.642-1.25,2.048,2.048,0,0,1,1.038-.58,2.156,2.156,0,0,1,.432-.044,2.543,2.543,0,0,1,.79.133,2.023,2.023,0,0,1,0-1.006,1.935,1.935,0,0,1,.522-.871,2.022,2.022,0,0,1,1.167-.6,2.183,2.183,0,0,1,.307-.021,2.707,2.707,0,0,1,1.064.234,4.438,4.438,0,0,1,1.373.962,4.508,4.508,0,0,1,.975,1.384,2.575,2.575,0,0,1,.217,1.376,2.027,2.027,0,0,1-.6,1.167,1.963,1.963,0,0,1-.871.522,1.862,1.862,0,0,1-.485.063,2.22,2.22,0,0,1-.528-.067,2.348,2.348,0,0,1,.1,1.229,2.047,2.047,0,0,1-.58,1.038,2.158,2.158,0,0,1-1.254.638,2.355,2.355,0,0,1-.32.021A2.95,2.95,0,0,1,25.937,31.531Zm-.764-3.99a1.043,1.043,0,0,0-.325.909,1.8,1.8,0,0,0,.567,1.018,1.827,1.827,0,0,0,1.034.575,1.291,1.291,0,0,0,.152.01,1.047,1.047,0,0,0,.757-.326,1.031,1.031,0,0,0,.312-.9,1.845,1.845,0,0,0-.579-1.03,1.8,1.8,0,0,0-1.017-.568,1.164,1.164,0,0,0-.15-.01A1.036,1.036,0,0,0,25.173,27.542Zm2.66-2.293a.9.9,0,0,0-.283.766,1.459,1.459,0,0,0,.467.851,1.523,1.523,0,0,0,.859.475A.958.958,0,0,0,29,27.35a.9.9,0,0,0,.646-.284.915.915,0,0,0,.288-.788,1.5,1.5,0,0,0-.47-.863,1.456,1.456,0,0,0-.851-.458.888.888,0,0,0-.112-.007A.925.925,0,0,0,27.833,25.249Zm-7.338.567a3.545,3.545,0,0,1-2.585-2.585,3.409,3.409,0,0,1,.15-1.927A6.033,6.033,0,0,1,21.3,18.061a3.668,3.668,0,0,1,1.236-.227,3.154,3.154,0,0,1,.691.077A3.546,3.546,0,0,1,25.816,20.5a3.425,3.425,0,0,1-.15,1.927,6.022,6.022,0,0,1-3.243,3.244,3.68,3.68,0,0,1-1.235.227A3.159,3.159,0,0,1,20.5,25.816Zm1.955-6.2a3.71,3.71,0,0,0-1.722,1.113,3.708,3.708,0,0,0-1.113,1.722,1.341,1.341,0,0,0,.372,1.288,1.328,1.328,0,0,0,.964.414,1.684,1.684,0,0,0,.332-.035,3.7,3.7,0,0,0,1.721-1.113,3.7,3.7,0,0,0,1.113-1.721,1.357,1.357,0,0,0-.379-1.3,1.313,1.313,0,0,0-.955-.407A1.7,1.7,0,0,0,22.451,19.616Zm-8.376.3,4.753-4.752L17.66,13.992l1.084-1.084,2.518,2.518-5.837,5.837Zm-2.643-3.369a5.282,5.282,0,0,1-2.043-1.317L6.738,12.575l5.837-5.837L15.226,9.39a5.288,5.288,0,0,1,1.317,2.043,3.857,3.857,0,0,1,.112,2.155,4.074,4.074,0,0,1-1.13,1.938,4.1,4.1,0,0,1-1.938,1.13,3.812,3.812,0,0,1-.875.1A4.017,4.017,0,0,1,11.432,16.543ZM9.2,12.817l1.234,1.234a2.785,2.785,0,0,0,1.884.909h.077a2.463,2.463,0,0,0,1.765-.8,2.446,2.446,0,0,0,.8-1.842,2.792,2.792,0,0,0-.909-1.885L12.816,9.2ZM4,9.839,6.395,7.447,3.744,4.795,1.35,7.187,0,5.837,5.837,0l1.35,1.351-2.3,2.3L7.538,6.3,9.839,4l1.35,1.35L5.353,11.189Z" transform="translate(1039.541 293.638)"/></g></svg>