<svg xmlns="http://www.w3.org/2000/svg" xmlns:xlink="http://www.w3.org/1999/xlink" width="22" height="74" viewBox="0 0 22 74"><defs><style>.a,.d,.e{fill:#fff;}.a{stroke:#707070;}.b{clip-path:url(#a);}.c{fill:url(#b);}.d{stroke:#fff;stroke-width:0.2px;}.e{stroke:rgba(0,0,0,0);stroke-miterlimit:10;}.f{fill:#270a1e;}</style><clipPath id="a"><rect class="a" width="22" height="74" transform="translate(780 401)"/></clipPath><linearGradient id="b" x1="0.5" x2="0.5" y2="1" gradientUnits="objectBoundingBox"><stop offset="0" stop-color="#e52d27"/><stop offset="1" stop-color="#9a0d11"/></linearGradient></defs><g class="b" transform="translate(-780 -401)"><g transform="translate(26.2 3)"><path class="c" d="M28.763,0H20.277a5.983,5.983,0,0,0-4.258,1.763L-1.688,19.471a3.9,3.9,0,0,0,0,5.511l8.812,8.814a3.9,3.9,0,0,0,5.511,0L30.344,16.087a6.061,6.061,0,0,0,1.763-4.257V3.344A3.345,3.345,0,0,0,28.763,0ZM24.749,10.7a3.345,3.345,0,1,1,3.345-3.345A3.345,3.345,0,0,1,24.749,10.7Z" transform="translate(742 451.995) rotate(-45)"/><g transform="translate(759 447.555) rotate(-45)"><path class="d" d="M213.758,199.855a.436.436,0,0,1-.436-.436v-6.982a.436.436,0,0,1,.873,0v6.982A.436.436,0,0,1,213.758,199.855Z" transform="translate(-209.831 -192)"/><path class="d" d="M129.3,237.285a1.309,1.309,0,1,1,1.309-1.309A1.309,1.309,0,0,1,129.3,237.285Zm0-1.746a.436.436,0,1,0,.436.436A.436.436,0,0,0,129.3,235.54Z" transform="translate(-127.989 -232.921)"/><path class="d" d="M257.3,279.952a1.309,1.309,0,1,1,1.309-1.309,1.309,1.309,0,0,1-1.309,1.309Zm0-1.746a.436.436,0,1,0,.436.436A.436.436,0,0,0,257.3,278.207Z" transform="translate(-250.752 -273.843)"/></g><path class="e" d="M-2811.18-347.81h-1.461v-3.4h1.461v3.4Zm-3.561-3.64h0a2.894,2.894,0,0,1-1.069-1.15,3.72,3.72,0,0,1-.39-1.75,3.614,3.614,0,0,1,.26-1.415,2.19,2.19,0,0,1,.745-.96,1.9,1.9,0,0,1,1.125-.345,2.435,2.435,0,0,1,1.074.245,4.123,4.123,0,0,1,1.145.945l1.22,1.319v-2.7h1.57v5.45h-1.24l-2.45-2.62a2.506,2.506,0,0,0-.615-.51,1.132,1.132,0,0,0-.515-.13.651.651,0,0,0-.53.229,1.036,1.036,0,0,0-.19.671,1.487,1.487,0,0,0,.175.715,1.45,1.45,0,0,0,.5.535l-.82,1.469Zm2.18-6.38a4.5,4.5,0,0,1-1.955-.4,2.9,2.9,0,0,1-1.255-1.094,3.008,3.008,0,0,1-.43-1.6,2.99,2.99,0,0,1,.43-1.59,2.906,2.906,0,0,1,1.255-1.1,4.514,4.514,0,0,1,1.955-.394,4.522,4.522,0,0,1,1.956.394,2.914,2.914,0,0,1,1.255,1.1,3,3,0,0,1,.43,1.59,3.016,3.016,0,0,1-.43,1.6,2.905,2.905,0,0,1-1.255,1.094A4.509,4.509,0,0,1-2812.56-357.83Zm0-4.18a3.074,3.074,0,0,0-1.535.294.9.9,0,0,0-.485.8.906.906,0,0,0,.485.8,3.064,3.064,0,0,0,1.535.3,3.066,3.066,0,0,0,1.535-.3.907.907,0,0,0,.485-.8.9.9,0,0,0-.485-.8A3.076,3.076,0,0,0-2812.56-362.01Z" transform="translate(3577.06 816.31)"/></g><rect class="f" width="1.5" height="39" rx="0.75" transform="translate(790.2 401.5)"/></g></svg>